
        <svg width="400px" height="400px" viewBox="0 0 400 400" version="1.1" xmlns="http://www.w3.org/2000/svg" xmlns:xlink="http://www.w3.org/1999/xlink">
          <defs>
            <linearGradient x1="0%" y1="50%" x2="100%" y2="50%" id="shadeGradientLight">
              <stop stop-color="#cdced1" offset="0%"></stop>
              <stop stop-color="#a0a1a7" offset="16.67%"></stop>
              <stop stop-color="#9d9d9f" offset="33.33%"></stop>
              <stop stop-color="#83858b" offset="50%"></stop>
              <stop stop-color="#696c77" offset="66.67%"></stop>
              <stop stop-color="#51535d" offset="83.33%"></stop>
              <stop stop-color="#383a42" offset="100%"></stop>
            </linearGradient>
            <linearGradient x1="0%" y1="50%" x2="100%" y2="50%" id="shadeGradientDark">
              <stop stop-color="#393e48" offset="0%"></stop>
              <stop stop-color="#00acff" offset="16.67%"></stop>
              <stop stop-color="#3fdf1f" offset="33.33%"></stop>
              <stop stop-color="#636d83" offset="50%"></stop>
              <stop stop-color="#828997" offset="66.67%"></stop>
              <stop stop-color="#979eab" offset="83.33%"></stop>
              <stop stop-color="#d3b58d" offset="100%"></stop>
            </linearGradient>
          </defs>
          <g id="light">
            <rect fill="#fafafa" x="0" y="0" width="400" height="200"></rect>
            <rect fill="#e45649" x="28" y="28" width="74" height="37"></rect>
            <rect fill="#986801" x="118" y="28" width="74" height="37"></rect>
            <rect fill="#c18401" x="208" y="28" width="74" height="37"></rect>
            <rect fill="#50a14f" x="298" y="28" width="74" height="37"></rect>
            <rect fill="#0184bc" x="28" y="81" width="74" height="37"></rect>
            <rect fill="#4078f2" x="118" y="81" width="74" height="37"></rect>
            <rect fill="#a626a4" x="208" y="81" width="74" height="37"></rect>
            <rect fill="#ca1243" x="298" y="81" width="74" height="37"></rect>
            <rect fill="url(#shadeGradientLight)" x="28" y="134" width="344" height="37"></rect>
          </g>
          <g id="dark" transform="translate(0.000000, 200.000000)">
            <rect fill="#072626" x="0" y="0" width="400" height="200"></rect>
            <rect fill="#f92672" x="28" y="28" width="74" height="37"></rect>
            <rect fill="#add8e6" x="118" y="28" width="74" height="37"></rect>
            <rect fill="#0fdfaf" x="208" y="28" width="74" height="37"></rect>
            <rect fill="#0fdfaf" x="298" y="28" width="74" height="37"></rect>
            <rect fill="#a6e22e" x="28" y="81" width="74" height="37"></rect>
            <rect fill="#ffffff" x="118" y="81" width="74" height="37"></rect>
            <rect fill="#90ee90" x="208" y="81" width="74" height="37"></rect>
            <rect fill="#ffffff" x="298" y="81" width="74" height="37"></rect>
            <rect fill="url(#shadeGradientDark)" x="28" y="134" width="344" height="37"></rect>
          </g>
        </svg>
      